<svg width="93" height="100" viewBox="0 0 93 100" fill="none" xmlns="http://www.w3.org/2000/svg">
<g clip-path="url(#clip0_12_175)">
<path fill-rule="evenodd" clip-rule="evenodd" d="M58.7314 1.96063C51.6132 5.01033 41.3397 5.01031 34.2214 1.96061C28.4379 -0.517239 21.9687 -0.74702 15.9996 1.84943C3.40283 7.32873 -2.24705 23.341 3.23556 37.7855C3.23678 37.7887 3.23672 37.7922 3.23539 37.7954L4.94633 41.5157C10.7298 54.0916 15.0893 67.2747 17.9433 80.8193L20.6583 93.7038C21.5979 97.4078 24.9181 100 28.7227 100C32.8089 100 36.2906 97.0196 36.9393 92.9664L40.7668 69.0518C41.2176 66.2352 43.6371 64.1641 46.4766 64.1641C49.3161 64.1641 51.7355 66.2353 52.1863 69.0518L56.0138 92.9664C56.6625 97.0196 60.1441 100 64.2303 100C68.035 100 71.3552 97.4078 72.2947 93.7038L75.0097 80.8193C77.8638 67.2747 82.2232 54.0916 88.0067 41.5157L89.7176 37.7954C89.7163 37.7922 89.7163 37.7887 89.7175 37.7855C95.2001 23.341 89.5502 7.32873 76.9534 1.84943C70.9843 -0.747047 64.515 -0.517252 58.7314 1.96063Z" fill="url(#paint0_linear_12_175)"/>
<g filter="url(#filter0_f_12_175)">
<path d="M19.0456 13.9315L17.956 8.73257C17.7619 7.80624 16.945 7.14282 15.9985 7.14282H15.8953C14.9223 7.14282 14.0905 7.84308 13.9246 8.80183L13.0784 13.6921C12.5845 16.5469 10.3829 18.8024 7.5409 19.3653L1.27165 20.6069C0.366467 20.7862 -0.285774 21.5803 -0.285774 22.5031C-0.285774 23.4548 0.406952 24.2648 1.34711 24.4126L7.2646 25.3425C10.2458 25.811 12.5912 28.1374 13.0839 31.1147L13.9347 36.2551C14.0945 37.2205 14.9293 37.9285 15.9079 37.9285H15.984C16.937 37.9285 17.7576 37.2561 17.9449 36.3217L19.0353 30.8829C19.6087 28.0223 21.8962 25.8174 24.776 25.3494L30.4877 24.4213C31.4288 24.2683 32.1202 23.4555 32.1202 22.502C32.1202 21.5785 31.4706 20.7823 30.5659 20.5971L24.4924 19.3532C21.7583 18.7933 19.6181 16.6629 19.0456 13.9315Z" fill="url(#paint1_linear_12_175)"/>
</g>
<path d="M17.5984 13.9947L16.8279 7.93374C16.7705 7.48166 16.3858 7.14282 15.9301 7.14282C15.4635 7.14282 15.0733 7.4976 15.0291 7.96214L14.4564 13.981C14.1194 17.5228 11.3566 20.3494 7.82334 20.767L0.504278 21.6321C0.0536957 21.6854 -0.285774 22.0674 -0.285774 22.5211C-0.285774 22.9871 0.0717659 23.3751 0.536217 23.4132L7.43956 23.9792C11.1624 24.2844 14.1272 27.2212 14.4676 30.941L15.0321 37.1094C15.0746 37.5734 15.4637 37.9285 15.9296 37.9285C16.3851 37.9285 16.7689 37.5887 16.8242 37.1367L17.5829 30.9314C18.0405 27.1886 21.0602 24.2797 24.8175 23.9625L31.298 23.4153C31.7629 23.376 32.1202 22.9872 32.1202 22.5206C32.1202 22.0668 31.7815 21.6843 31.331 21.6294L24.4288 20.7891C20.865 20.3552 18.0511 17.5562 17.5984 13.9947Z" fill="url(#paint2_linear_12_175)"/>
<g filter="url(#filter1_f_12_175)">
<path d="M74.5268 54.0268L74.1983 52.4594C74.0724 51.8587 73.5427 51.4286 72.9291 51.4286C72.2982 51.4286 71.7588 51.8826 71.6513 52.5043L71.4293 53.7874C70.9353 56.6422 68.7337 58.8977 65.8917 59.4606L63.7011 59.8944C63.132 60.0071 62.7218 60.5064 62.7218 61.0866C62.7218 61.685 63.1574 62.1944 63.7485 62.2873L65.6154 62.5807C68.5966 63.0492 70.942 65.3755 71.4347 68.3528L71.6593 69.7095C71.762 70.3304 72.2989 70.7857 72.9283 70.7857C73.5412 70.7857 74.0689 70.3533 74.1894 69.7523L74.5164 68.121C75.0899 65.2604 77.3774 63.0555 80.2571 62.5876L82.0713 62.2928C82.663 62.1966 83.0978 61.6855 83.0978 61.086C83.0978 60.5053 82.6893 60.0047 82.1205 59.8882L79.9735 59.4485C77.2395 58.8886 75.0992 56.7582 74.5268 54.0268Z" fill="url(#paint3_linear_12_175)"/>
</g>
<path d="M73.9669 55.7368L73.4824 51.9259C73.4463 51.6416 73.2044 51.4286 72.9179 51.4286C72.6245 51.4286 72.3792 51.6517 72.3514 51.9438L71.9913 55.7282C71.7794 57.9552 70.0422 59.7325 67.8206 59.9951L63.2186 60.539C62.9353 60.5725 62.7218 60.8127 62.7218 61.098C62.7218 61.391 62.9467 61.635 63.2387 61.6589L67.5793 62.0148C69.9201 62.2067 71.7843 64.0533 71.9983 66.3922L72.3533 70.2707C72.38 70.5624 72.6246 70.7857 72.9176 70.7857C73.204 70.7857 73.4453 70.5721 73.4801 70.2878L73.9571 66.3861C74.2448 64.0328 76.1436 62.2038 78.5061 62.0043L82.5808 61.6602C82.8731 61.6355 83.0978 61.3911 83.0978 61.0977C83.0978 60.8123 82.8848 60.5718 82.6015 60.5373L78.2616 60.009C76.0208 59.7361 74.2515 57.9762 73.9669 55.7368Z" fill="url(#paint4_linear_12_175)"/>
</g>
<defs>
<filter id="filter0_f_12_175" x="-4.28577" y="3.14282" width="40.406" height="38.7858" filterUnits="userSpaceOnUse" color-interpolation-filters="sRGB">
<feFlood flood-opacity="0" result="BackgroundImageFix"/>
<feBlend mode="normal" in="SourceGraphic" in2="BackgroundImageFix" result="shape"/>
<feGaussianBlur stdDeviation="2" result="effect1_foregroundBlur_12_175"/>
</filter>
<filter id="filter1_f_12_175" x="58.7218" y="47.4286" width="28.376" height="27.3572" filterUnits="userSpaceOnUse" color-interpolation-filters="sRGB">
<feFlood flood-opacity="0" result="BackgroundImageFix"/>
<feBlend mode="normal" in="SourceGraphic" in2="BackgroundImageFix" result="shape"/>
<feGaussianBlur stdDeviation="2" result="effect1_foregroundBlur_12_175"/>
</filter>
<linearGradient id="paint0_linear_12_175" x1="13.1432" y1="-1.19832e-07" x2="67.8099" y2="96" gradientUnits="userSpaceOnUse">
<stop stop-color="#F0F6F9"/>
<stop offset="1" stop-color="#CDDFF2"/>
</linearGradient>
<linearGradient id="paint1_linear_12_175" x1="15.9172" y1="7.14282" x2="15.9172" y2="37.9285" gradientUnits="userSpaceOnUse">
<stop stop-color="white"/>
<stop offset="1" stop-color="white"/>
</linearGradient>
<linearGradient id="paint2_linear_12_175" x1="15.9172" y1="7.14282" x2="15.9172" y2="37.9285" gradientUnits="userSpaceOnUse">
<stop stop-color="white"/>
<stop offset="1" stop-color="white"/>
</linearGradient>
<linearGradient id="paint3_linear_12_175" x1="72.9098" y1="51.4286" x2="72.9098" y2="70.7857" gradientUnits="userSpaceOnUse">
<stop stop-color="white"/>
<stop offset="1" stop-color="white"/>
</linearGradient>
<linearGradient id="paint4_linear_12_175" x1="72.9098" y1="51.4286" x2="72.9098" y2="70.7857" gradientUnits="userSpaceOnUse">
<stop stop-color="white"/>
<stop offset="1" stop-color="white"/>
</linearGradient>
<clipPath id="clip0_12_175">
<rect width="93" height="100" fill="white"/>
</clipPath>
</defs>
</svg>
