<svg width="40" height="40" viewBox="0 0 40 40" fill="none" xmlns="http://www.w3.org/2000/svg">
<path d="M19.5352 0.5C22.4397 0.501042 25.3056 1.16663 27.9131 2.44629C30.5205 3.72596 32.8003 5.5859 34.5781 7.88281C36.356 10.1799 37.585 12.854 38.1699 15.6992C38.7548 18.5444 38.6806 21.4858 37.9531 24.2979C37.2256 27.11 35.8639 29.7183 33.9727 31.9229C32.0814 34.1273 29.7106 35.8699 27.042 37.0166C24.3733 38.1633 21.4771 38.6844 18.5762 38.5391C15.6751 38.3937 12.8454 37.5855 10.3047 36.1777L10.1123 36.0713L9.9043 36.1406L2.93359 38.4648C2.60881 38.5732 2.25998 38.5893 1.92676 38.5107C1.59347 38.4321 1.28805 38.2617 1.0459 38.0195C0.80396 37.7775 0.634292 37.4727 0.555664 37.1396C0.47702 36.8064 0.492291 36.4576 0.600586 36.1328L2.9248 29.1621L2.99512 28.9531L2.8877 28.7617C1.2808 25.8643 0.458972 22.5971 0.501953 19.2842C0.544966 15.9713 1.45132 12.7268 3.13281 9.87207C4.81428 7.01743 7.21237 4.6516 10.0889 3.00781C12.9655 1.364 16.222 0.499384 19.5352 0.5ZM28.7578 3.53223C25.2353 1.501 21.1404 0.68846 17.1094 1.22168C13.0785 1.75497 9.33598 3.60431 6.46289 6.48145C3.58996 9.35857 1.74633 13.1032 1.21875 17.1348C0.691224 21.1664 1.50897 25.2598 3.54492 28.7793C3.56481 28.8137 3.578 28.8521 3.58203 28.8916C3.58403 28.9114 3.58324 28.9315 3.58105 28.9512L3.56836 29.0098L1.13477 36.3105C1.05952 36.5362 1.04895 36.7783 1.10352 37.0098C1.15817 37.2414 1.27606 37.4538 1.44434 37.6221C1.61252 37.7902 1.82422 37.9082 2.05566 37.9629C2.28728 38.0176 2.53011 38.0069 2.75586 37.9316L10.0596 35.4971C10.087 35.4877 10.1156 35.4826 10.1445 35.4824C10.1945 35.4828 10.2438 35.4957 10.2871 35.5205C13.0983 37.1455 16.2881 38.001 19.5352 38C23.6011 37.9992 27.5532 36.6567 30.7783 34.1807C34.0036 31.7045 36.322 28.2327 37.373 24.3047C38.4239 20.3768 38.1494 16.2119 36.5918 12.4561C35.0341 8.70017 32.2802 5.56345 28.7578 3.53223ZM14.8477 8.3125H14.8486C14.901 8.31245 14.9525 8.32696 14.9971 8.35449C15.0416 8.38207 15.0773 8.42183 15.1006 8.46875L15.1016 8.46973L18.2256 14.7188C18.2477 14.763 18.258 14.8129 18.2549 14.8623C18.2518 14.9116 18.2354 14.9589 18.208 15L16.041 18.25L15.8828 18.4863L16.0059 18.7432C16.9118 20.6323 18.4351 22.1565 20.3242 23.0625L20.5811 23.1855L20.8184 23.0273L24.0674 20.8584C24.1085 20.8311 24.1568 20.8166 24.2061 20.8135C24.2307 20.8119 24.2553 20.8135 24.2793 20.8184L24.3486 20.8418L30.5986 23.9668C30.6452 23.9902 30.6845 24.026 30.7119 24.0703C30.7394 24.1148 30.7539 24.1665 30.7539 24.2188L30.7451 24.543C30.665 26.157 29.9889 27.6887 28.8408 28.8369C27.616 30.0617 25.9548 30.7499 24.2227 30.75L23.8281 30.7451C19.754 30.6398 15.8694 28.9748 12.9805 26.0859C9.99847 23.1039 8.32106 19.0609 8.31641 14.8438C8.31641 13.1116 9.00465 11.4504 10.2295 10.2256C11.4543 9.00083 13.1155 8.3125 14.8477 8.3125ZM14.3311 8.89648C12.8429 9.0257 11.4577 9.70856 10.4482 10.8096C9.43873 11.9107 8.87867 13.3499 8.87891 14.8438V14.8447C8.8833 18.9124 10.5008 22.8121 13.377 25.6885C16.2534 28.5649 20.1538 30.1832 24.2217 30.1875C25.7156 30.1883 27.1563 29.6293 28.2578 28.6201C29.3593 27.6109 30.0422 26.2246 30.1719 24.7363L30.2012 24.3984L29.8975 24.2461L24.5049 21.5508L24.2451 21.4209L24.0039 21.582L20.7734 23.7305L20.7725 23.7314C20.734 23.7572 20.6896 23.7728 20.6436 23.7773C20.5974 23.7819 20.5506 23.7746 20.5078 23.7568C18.3083 22.831 16.5308 21.1323 15.5039 18.9902L15.3086 18.5557C15.2923 18.5141 15.2855 18.4693 15.29 18.4248C15.2947 18.3789 15.3112 18.3352 15.3369 18.2969L15.3379 18.2949L17.4863 15.0645L17.6465 14.8223L17.5176 14.5635L14.8223 9.1709L14.6699 8.86719L14.3311 8.89648Z" fill="#555555" stroke="#555555"/>
</svg>
