<svg width="43" height="61" viewBox="0 0 43 61" fill="none" xmlns="http://www.w3.org/2000/svg">
<path d="M41.5 21.5C41.5 32.5667 21.5 59.2778 21.5 59.2778C21.5 59.2778 1.5 32.5667 1.5 21.5C1.5 16.1957 3.60714 11.1086 7.35786 7.35786C11.1086 3.60714 16.1957 1.5 21.5 1.5C26.8043 1.5 31.8914 3.60714 35.6421 7.35786C39.3929 11.1086 41.5 16.1957 41.5 21.5Z" stroke="#555555" stroke-width="3" stroke-linecap="round" stroke-linejoin="round"/>
<path d="M21.5 28.1668C25.1819 28.1668 28.1667 25.1821 28.1667 21.5002C28.1667 17.8183 25.1819 14.8335 21.5 14.8335C17.8181 14.8335 14.8334 17.8183 14.8334 21.5002C14.8334 25.1821 17.8181 28.1668 21.5 28.1668Z" stroke="#555555" stroke-width="3" stroke-linecap="round" stroke-linejoin="round"/>
</svg>
