<svg width="42" height="42" viewBox="0 0 42 42" fill="none" xmlns="http://www.w3.org/2000/svg">
<path d="M20.75 28.75V12.75M12.75 24.75V16.75M28.75 24.75V16.75M30.75 3.42602C27.711 1.66783 24.261 0.744614 20.75 0.750024C9.704 0.750024 0.75 9.70402 0.75 20.75C0.75 23.95 1.502 26.974 2.836 29.656C3.192 30.368 3.31 31.182 3.104 31.952L1.914 36.404C1.79658 36.8445 1.79702 37.3081 1.91528 37.7483C2.03354 38.1885 2.26546 38.5899 2.58778 38.9122C2.91011 39.2346 3.31151 39.4665 3.75174 39.5847C4.19196 39.703 4.65555 39.7034 5.096 39.586L9.548 38.396C10.3208 38.2015 11.1381 38.2961 11.846 38.662C14.6118 40.0393 17.6602 40.7541 20.75 40.75C31.796 40.75 40.75 31.796 40.75 20.75C40.75 17.108 39.776 13.69 38.074 10.75" stroke="#555555" stroke-width="1.5" stroke-linecap="round"/>
</svg>
