<svg width="40" height="40" viewBox="0 0 40 40" fill="none" xmlns="http://www.w3.org/2000/svg">
<path d="M9.80078 1.45605C7.48443 1.76422 5.35915 2.9048 3.82227 4.66504C2.38139 6.31535 1.55044 8.40476 1.45801 10.585L1.44922 11.0186C1.44922 26.1985 13.7971 38.547 28.9766 38.5488V38.5498L28.9775 38.5488L28.9805 38.5498V38.5488C31.3163 38.555 33.5745 37.7122 35.334 36.1758C37.0943 34.6384 38.2353 32.5122 38.543 30.1953L38.5459 30.1699L38.5479 30.1445C38.5685 29.8871 38.5186 29.629 38.4033 29.3994L38.3496 29.3027L38.2891 29.21C38.1428 29.0062 37.9434 28.8459 37.7129 28.7441L37.7139 28.7432L28.0703 24.4229L28.0459 24.4121L28.0215 24.4023C27.8344 24.3302 27.6337 24.299 27.4336 24.3115C27.2334 24.324 27.038 24.3797 26.8613 24.4746L26.7676 24.5254L26.6875 24.5947L21.6582 28.873C21.6522 28.878 21.6413 28.8861 21.625 28.8975C21.3589 29.074 21.052 29.179 20.7334 29.2021C20.4534 29.2225 20.173 29.1794 19.9131 29.0762L19.8027 29.0283C16.257 27.3133 12.69 23.7764 10.9805 20.2705C10.844 19.9837 10.7837 19.6666 10.8047 19.3496C10.8258 19.0305 10.9293 18.7226 11.1045 18.4551L11.1094 18.4473C11.1084 18.4487 11.1066 18.4498 11.1055 18.4512L11.1133 18.4424L11.1211 18.4336L15.4189 13.3193L15.5059 13.2158L15.5615 13.0938C15.6462 12.9094 15.6904 12.7087 15.6904 12.5059C15.6904 12.3064 15.6473 12.1095 15.5654 11.9277H15.5664L11.2686 2.30664C11.181 2.09976 11.0454 1.91695 10.873 1.77344L10.7891 1.70801L10.7002 1.65039C10.4887 1.5226 10.2464 1.4519 9.99805 1.44727H9.86621L9.80078 1.45605ZM24.1396 9.16895C27.6123 10.097 29.9019 12.3858 30.8301 15.8584V15.8594C30.8377 15.8879 30.8398 15.918 30.8359 15.9473C30.832 15.9764 30.8223 16.0048 30.8076 16.0303C30.7929 16.0557 30.7733 16.0779 30.75 16.0957C30.7383 16.1046 30.726 16.1127 30.7129 16.1191L30.6709 16.1348C30.6531 16.1394 30.6346 16.1417 30.6162 16.1416H30.6123C30.5629 16.1416 30.5148 16.1248 30.4756 16.0947C30.4365 16.0647 30.4074 16.0232 30.3945 15.9756H30.3955C29.539 12.7638 27.4734 10.6248 24.3311 9.69043L24.0234 9.60352C23.9659 9.58802 23.9165 9.5506 23.8867 9.49902C23.8569 9.44734 23.8489 9.38578 23.8643 9.32812C23.8796 9.27057 23.9172 9.22133 23.9688 9.19141C23.9944 9.1766 24.0234 9.16697 24.0527 9.16309C24.0818 9.15928 24.1113 9.16142 24.1396 9.16895ZM25.7725 2.6377L25.7783 2.63965C28.5639 3.36625 31.106 4.82184 33.1416 6.85742C35.1772 8.893 36.6328 11.4352 37.3594 14.2207L37.3613 14.2266C37.369 14.2551 37.371 14.2852 37.3672 14.3145C37.3633 14.3436 37.3536 14.372 37.3389 14.3975C37.3241 14.423 37.3037 14.445 37.2803 14.4629C37.2686 14.4718 37.2563 14.4799 37.2432 14.4863L37.2021 14.502C37.1842 14.5067 37.1651 14.5089 37.1465 14.5088H37.1426C37.0932 14.5088 37.045 14.4929 37.0059 14.4629C36.9863 14.4479 36.9696 14.4294 36.9561 14.4092L36.9258 14.3428C36.2181 11.6324 34.8011 9.15951 32.8203 7.17871C30.8385 5.19692 28.3643 3.77863 25.6523 3.07129C25.6252 3.06356 25.5995 3.05133 25.5771 3.03418C25.5539 3.01632 25.5343 2.99414 25.5195 2.96875C25.5048 2.94328 25.4951 2.9149 25.4912 2.88574C25.4873 2.85648 25.4894 2.82635 25.4971 2.79785V2.79688C25.5047 2.76837 25.5182 2.7412 25.5361 2.71777C25.554 2.69454 25.5762 2.67484 25.6016 2.66016C25.6271 2.64541 25.6554 2.63571 25.6846 2.63184C25.7138 2.62797 25.744 2.63006 25.7725 2.6377ZM1 11.0166C0.995421 8.56996 1.88172 6.20528 3.49316 4.36426C5.10398 2.52398 7.32932 1.33265 9.75391 1.0127C10.1507 0.965912 10.5521 1.04851 10.8984 1.24805C11.2467 1.44874 11.5206 1.75741 11.6787 2.12695L11.6816 2.13477L11.6855 2.1416L15.9883 11.7451V11.7461C16.1118 12.0289 16.1626 12.338 16.1367 12.6455C16.1108 12.9531 16.0091 13.2497 15.8398 13.5078L15.8369 13.5107C15.833 13.5168 15.8287 13.5227 15.8242 13.5283L11.5244 18.6426L11.4463 18.7354L11.3926 18.8447C11.3222 18.9876 11.2778 19.1414 11.2598 19.2988L11.25 19.457L11.2598 19.6152C11.2779 19.7724 11.3224 19.9257 11.3926 20.0684C13.0556 23.4711 16.5744 26.9625 20.0195 28.6201L20.0293 28.625L20.0381 28.6289C20.2335 28.718 20.4475 28.7606 20.6621 28.7529C20.8766 28.7452 21.0869 28.6877 21.2754 28.585L21.3652 28.5352L21.4443 28.4688L26.4834 24.1826L26.4912 24.1758L26.4893 24.1768L26.4971 24.1719L26.5039 24.168C26.7609 23.9966 27.0567 23.8916 27.3643 23.8633C27.6717 23.835 27.9818 23.8833 28.2656 24.0049L37.8916 28.3193L37.8955 28.3213C38.2599 28.4829 38.5624 28.7576 38.7588 29.1045C38.9532 29.4481 39.0325 29.8445 38.9863 30.2363C38.6682 32.6631 37.4778 34.8913 35.6367 36.5039C33.7955 38.1166 31.4291 39.0035 28.9814 38.999H28.9805C13.553 38.999 1 26.4461 1 11.0186V11.0166Z" fill="#555555" stroke="#555555" stroke-width="2"/>
</svg>
