<svg width="52" height="52" viewBox="0 0 52 52" fill="none" xmlns="http://www.w3.org/2000/svg">
<path d="M49.1204 35.9295L36.8233 30.4268C36.3466 30.2205 35.826 30.1363 35.3086 30.1818C34.7911 30.2272 34.2932 30.401 33.8598 30.6872C33.8251 30.7092 33.7921 30.7336 33.7608 30.7602L27.3024 36.2654C27.1587 36.3531 26.9956 36.4039 26.8275 36.4135C26.6594 36.423 26.4916 36.391 26.3389 36.3201C22.1096 34.2784 17.732 29.9346 15.6903 25.7549C15.6181 25.6033 15.5846 25.4362 15.5927 25.2685C15.6009 25.1008 15.6505 24.9378 15.7372 24.7939L21.2581 18.2288C21.2841 18.1975 21.3076 18.1637 21.331 18.1298C21.6164 17.697 21.7896 17.2 21.8351 16.6835C21.8805 16.1671 21.7968 15.6475 21.5914 15.1714L16.0783 2.89526C15.8122 2.2735 15.3515 1.75487 14.7655 1.41724C14.1794 1.07961 13.4997 0.941222 12.8283 1.02285C9.55109 1.45493 6.54324 3.06522 4.36655 5.55294C2.18986 8.04066 0.993177 11.2357 1.00003 14.5412C1.00003 34.6456 17.3544 51 37.4588 51C40.7643 51.0068 43.9593 49.8101 46.4471 47.6335C48.9348 45.4568 50.5451 42.4489 50.9772 39.1717C51.0582 38.5034 50.9212 37.8268 50.5867 37.2426C50.2521 36.6584 49.7378 36.1978 49.1204 35.9295ZM48.9172 38.9113C48.5495 41.6867 47.1835 44.2332 45.0746 46.0746C42.9658 47.916 40.2584 48.9263 37.4588 48.9166C18.5054 48.9166 3.08339 33.4946 3.08339 14.5412C3.07369 11.7416 4.08399 9.03423 5.92541 6.92537C7.76683 4.81651 10.3133 3.45051 13.0887 3.08276C13.1303 3.08018 13.1721 3.08018 13.2137 3.08276C13.4192 3.08452 13.6196 3.14702 13.7897 3.2624C13.9597 3.37779 14.0919 3.5409 14.1694 3.73121L19.6669 16.0074C19.731 16.1574 19.759 16.3204 19.7486 16.4833C19.7382 16.6461 19.6897 16.8042 19.607 16.9449L14.0887 23.5075C14.0627 23.5413 14.0366 23.5726 14.0132 23.609C13.7192 24.0586 13.5461 24.5764 13.5105 25.1124C13.4749 25.6484 13.5781 26.1845 13.8101 26.669C16.0731 31.3018 20.7398 35.9347 25.4248 38.1977C25.9126 38.4282 26.4517 38.5285 26.9898 38.4888C27.5278 38.4491 28.0464 38.2708 28.4951 37.9712L28.5915 37.8983L35.0577 32.3982C35.196 32.3137 35.3524 32.2633 35.5141 32.251C35.6757 32.2388 35.8379 32.2651 35.9874 32.3279L48.2818 37.8384C48.4893 37.9247 48.6633 38.0759 48.7778 38.2692C48.8923 38.4626 48.9412 38.6878 48.9172 38.9113Z" stroke="#00296D" stroke-width="2"/>
</svg>
