<svg width="92" height="100" viewBox="0 0 92 100" fill="none" xmlns="http://www.w3.org/2000/svg">
<path fill-rule="evenodd" clip-rule="evenodd" d="M57.5885 1.96063C50.4702 5.01033 40.1967 5.01031 33.0785 1.96061C27.295 -0.517239 20.8258 -0.74702 14.8566 1.84943C2.25989 7.32873 -3.38999 23.341 2.09262 37.7855C2.09383 37.7887 2.09378 37.7922 2.09245 37.7954L3.80338 41.5157C9.58691 54.0916 13.9463 67.2747 16.8004 80.8193L19.5154 93.7038C20.4549 97.4078 23.7751 100 27.5798 100C31.666 100 35.1477 97.0196 35.7964 92.9664L39.6239 69.0518C40.0747 66.2352 42.4941 64.1641 45.3336 64.1641C48.1731 64.1641 50.5926 66.2353 51.0434 69.0518L54.8708 92.9664C55.5195 97.0196 59.0012 100 63.0874 100C66.892 100 70.2122 97.4078 71.1518 93.7038L73.8668 80.8193C76.7208 67.2747 81.0803 54.0916 86.8638 41.5157L88.5747 37.7954C88.5734 37.7922 88.5733 37.7887 88.5745 37.7855C94.0571 23.341 88.4073 7.32873 75.8105 1.84943C69.8413 -0.747047 63.3721 -0.517252 57.5885 1.96063Z" fill="url(#paint0_linear_12_170)"/>
<mask id="mask0_12_170" style="mask-type:alpha" maskUnits="userSpaceOnUse" x="0" y="0" width="91" height="100">
<path fill-rule="evenodd" clip-rule="evenodd" d="M57.5885 1.96063C50.4702 5.01033 40.1967 5.01031 33.0785 1.96061C27.295 -0.517239 20.8258 -0.74702 14.8566 1.84943C2.25989 7.32873 -3.38999 23.341 2.09262 37.7855C2.09383 37.7887 2.09378 37.7922 2.09245 37.7954L3.80338 41.5157C9.58691 54.0916 13.9463 67.2747 16.8004 80.8193L19.5154 93.7038C20.4549 97.4078 23.7751 100 27.5798 100C31.666 100 35.1477 97.0196 35.7964 92.9664L39.6239 69.0518C40.0747 66.2352 42.4941 64.1641 45.3336 64.1641C48.1731 64.1641 50.5926 66.2353 51.0434 69.0518L54.8708 92.9664C55.5195 97.0196 59.0012 100 63.0874 100C66.892 100 70.2122 97.4078 71.1518 93.7038L73.8668 80.8193C76.7208 67.2747 81.0803 54.0916 86.8638 41.5157L88.5747 37.7954C88.5734 37.7922 88.5733 37.7887 88.5745 37.7855C94.0571 23.341 88.4073 7.32873 75.8105 1.84943C69.8413 -0.747047 63.3721 -0.517252 57.5885 1.96063Z" fill="url(#paint1_linear_12_170)"/>
</mask>
<g mask="url(#mask0_12_170)">
<path d="M31.4286 11.0995C31.4286 10.5578 30.9957 10.1203 30.4587 10.0498C25.8756 9.44778 22.3376 5.52669 22.3376 0.779273V-0.77917C22.3376 -5.08269 25.8263 -4.28566 30.1299 -4.28566C32.3967 -4.28566 34.4374 -3.31773 35.8613 -1.77264C38.4245 -4.21491 41.8943 -5.71423 45.7143 -5.71423C49.5343 -5.71423 53.004 -2.78635 55.5673 -0.344083C56.9912 -1.88917 59.0319 -2.85709 61.2987 -2.85709C65.6022 -2.85709 69.0909 0.631598 69.0909 4.93511V6.49356C69.0909 11.241 65.553 15.1621 60.9699 15.7641C60.4328 15.8346 60 16.2721 60 16.8138V17.1429C60 25.0327 53.6041 31.4286 45.7143 31.4286C37.8245 31.4286 31.4286 25.0327 31.4286 17.1429V11.0995Z" fill="url(#paint2_linear_12_170)"/>
</g>
<defs>
<linearGradient id="paint0_linear_12_170" x1="12.0002" y1="-1.19832e-07" x2="66.6669" y2="96" gradientUnits="userSpaceOnUse">
<stop stop-color="#F0F6F9"/>
<stop offset="1" stop-color="#CDDFF2"/>
</linearGradient>
<linearGradient id="paint1_linear_12_170" x1="12.0002" y1="-1.19832e-07" x2="66.6669" y2="96" gradientUnits="userSpaceOnUse">
<stop stop-color="#F0F6F9"/>
<stop offset="1" stop-color="#CDDFF2"/>
</linearGradient>
<linearGradient id="paint2_linear_12_170" x1="65.1948" y1="-6.62332" x2="49.8942" y2="54.0513" gradientUnits="userSpaceOnUse">
<stop stop-color="#E6F0F8"/>
<stop offset="1" stop-color="#6F93BA"/>
</linearGradient>
</defs>
</svg>
