<svg width="43" height="50" viewBox="0 0 43 50" fill="none" xmlns="http://www.w3.org/2000/svg">
<path d="M21.5371 49.4951C21.4418 49.4961 21.3462 49.5 21.25 49.5C14.5058 49.5 8.57172 48.4497 4.78516 46.6133L17.3115 44.5654L21.5371 49.4951ZM41.8262 40.5576C41.9392 40.8991 42 41.2573 42 41.6357C42 43.5353 40.5417 45.2331 37.7676 46.5869C35.0667 47.905 31.2579 48.8173 26.834 49.2344L22.042 43.7832L41.8262 40.5576ZM14.1172 40.6328L0.700195 42.8262C0.568829 42.4439 0.501344 42.0416 0.5 41.6357C0.500084 40.4249 1.08834 39.3851 2.23828 38.4873C3.36399 37.6085 5.00464 36.8907 7.06348 36.3301L14.1172 40.6328ZM21.251 0.5C29.126 0.5 35.5859 6.94378 35.5859 14.7979C35.5856 16.6276 35.2297 18.4398 34.5381 20.1338L34.5332 20.1455L34.5293 20.1582C34.3783 20.5898 34.2047 21.0187 33.9746 21.4346L33.9688 21.4453L23.3711 39.4824L23.3594 39.4971L23.3535 39.5049C22.735 40.343 22.2023 40.9102 21.3828 40.9922C21.0391 41.0265 20.6696 40.9333 20.3418 40.75L20.2041 40.666C19.8345 40.4217 19.5026 40.0784 19.1396 39.6045L19.1182 39.5771L9.51758 22.9805L9.50684 22.9609L9.49414 22.9434C7.87289 20.629 6.91406 17.8163 6.91406 14.7979C6.91414 6.94387 13.3759 0.500014 21.251 0.5ZM31.7168 35.5498C33.8015 35.8718 35.6432 36.307 37.1729 36.8652L30.4316 37.9668L31.7168 35.5498ZM21.251 8.02246C17.4408 8.02247 14.4541 11.0002 14.4541 14.7979C14.4543 18.5963 17.4405 21.5723 21.251 21.5723C25.0611 21.5723 28.0457 18.5967 28.0459 14.7979C28.0459 10.9999 25.0613 8.02246 21.251 8.02246Z" fill="#00296D" stroke="#00296D"/>
</svg>
