<svg width="76" height="50" viewBox="0 0 76 50" fill="none" xmlns="http://www.w3.org/2000/svg">
<path d="M51.8854 25.1054L71.2465 8.28454V41.7343L51.8854 25.1054ZM26.9374 27.954L33.7362 33.8558C34.8033 34.7624 36.1945 35.31 37.7148 35.31H37.7683H37.8093C39.3327 35.31 40.724 34.7592 41.8036 33.8464L41.7941 33.8527L48.593 27.9509L69.2603 45.7003H6.27951L26.9374 27.954ZM6.25118 4.29651H69.2981L39.0148 30.598C38.6743 30.8674 38.2528 31.0138 37.8187 31.0135H37.7746H37.7337C37.298 31.0141 36.8751 30.8665 36.5345 30.5949L36.5376 30.598L6.25118 4.29651ZM4.29651 8.2814L23.6544 25.1023L4.29651 41.7217V8.2814ZM72.2852 0.598049C71.5297 0.220334 70.6421 0 69.701 0H5.85143C4.93913 0.000217926 4.03936 0.212498 3.22317 0.620082L3.25779 0.604343C2.28068 1.08628 1.45781 1.83185 0.882135 2.75683C0.306455 3.68181 0.000904464 4.74935 0 5.83884L0 44.1517C0.00166636 45.7023 0.618358 47.1888 1.71476 48.2852C2.81117 49.3816 4.29773 49.9983 5.84828 50H69.6915C71.2421 49.9983 72.7287 49.3816 73.8251 48.2852C74.9215 47.1888 75.5382 45.7023 75.5398 44.1517V5.83884C75.5398 3.55052 74.221 1.56752 72.3009 0.613787L72.2663 0.598049H72.2852Z" fill="#00296D"/>
</svg>
