<svg width="55" height="60" viewBox="0 0 55 60" fill="none" xmlns="http://www.w3.org/2000/svg">
<g clip-path="url(#clip0_4_37)">
<path d="M9.34082 2.09473C12.9072 0.555949 16.7679 0.696126 20.2061 2.15723C24.1715 3.84234 29.934 3.84241 33.8994 2.15723C37.3374 0.696286 41.1975 0.556123 44.7637 2.09473C52.2383 5.31974 55.5436 14.6415 52.4365 23.0273L52.4473 23.0527L52.3545 23.2539L51.3711 25.374C48.0634 32.5083 45.5698 39.9872 43.9375 47.6709L42.3779 55.0146L42.376 55.0254L42.373 55.0352C41.7763 57.3686 39.6684 58.9999 37.2549 59C34.6626 59 32.4511 57.1241 32.0391 54.5703L29.8398 40.9395C29.6201 39.5776 28.4402 38.5734 27.0527 38.5732C25.6652 38.5732 24.4844 39.5775 24.2646 40.9395L22.0654 54.5703C21.6534 57.124 19.4427 58.9999 16.8506 59C14.4369 59 12.3282 57.3688 11.7314 55.0352L11.7295 55.0254L11.7275 55.0146L10.167 47.6709C8.53472 39.9872 6.0411 32.5083 2.7334 25.374L1.75098 23.2539L1.65723 23.0518L1.66699 23.0273C-1.43985 14.6416 1.86635 5.3197 9.34082 2.09473Z" fill="url(#paint0_linear_4_37)" stroke="#44C6E9"/>
</g>
<defs>
<linearGradient id="paint0_linear_4_37" x1="7.89767" y1="1.5" x2="38.9282" y2="56.4365" gradientUnits="userSpaceOnUse">
<stop stop-color="#F0F6F9"/>
<stop offset="1" stop-color="#CDDFF2"/>
</linearGradient>
<clipPath id="clip0_4_37">
<rect width="54.1049" height="60" fill="white"/>
</clipPath>
</defs>
</svg>
